<svg width="28" height="26" fill="none" xmlns="http://www.w3.org/2000/svg"><path d="M14.185 10.957c1.016 0 1.806-.836 1.787-1.746.019-.91-.752-1.764-1.768-1.764-.978 0-1.787.78-1.787 1.746 0 .965.79 1.764 1.768 1.764z" fill="#CDCDCD"/><path d="M14.035 0C6.775 0 .87 5.831.87 13c0 7.187 5.905 13 13.165 13 7.279 0 13.166-5.831 13.166-13 .019-7.17-5.887-13-13.166-13zm.188 4.921c2.37 0 4.326 1.932 4.307 4.29 0 2.377-1.975 4.29-4.382 4.253-2.37-.037-4.27-1.95-4.27-4.271 0-2.359 1.938-4.272 4.345-4.272zm4.834 10.029c0 .037-.019.056-.019.093a1.213 1.213 0 01-.564.873c-.207.13-.433.26-.658.371a8.551 8.551 0 01-1.787.65c-.075.019-.075.019-.019.074l1.034 1.022 1.317 1.3c.62.613.451 1.634-.338 2.006-.132.074-.283.092-.433.13h-.244c-.02 0-.038 0-.038-.02-.301-.036-.546-.185-.771-.39l-2.276-2.246c-.056-.056-.056-.056-.113 0l-2.294 2.265c-.132.13-.264.223-.433.298-.113.055-.245.074-.357.092h-.245c-.038 0-.056-.018-.094-.018-.508-.093-.846-.372-.997-.854-.15-.483-.037-.91.32-1.263l.94-.929 1.392-1.374c.057-.056.057-.056-.019-.074-.019 0-.056-.019-.075-.019a8.182 8.182 0 01-2.35-.984c-.433-.279-.64-.687-.584-1.189.094-.928 1.147-1.43 1.937-.928.15.092.282.167.452.241a5.412 5.412 0 002.746.557c.47-.018.94-.111 1.41-.26.452-.148.847-.353 1.26-.575.677-.39 1.561-.075 1.825.65.037.11.056.204.075.315v.186z"/></svg>